<?xml version="1.0" encoding="utf-8"?>
<!-- Generator: Adobe Illustrator 16.0.0, SVG Export Plug-In . SVG Version: 6.00 Build 0)  -->
<!DOCTYPE svg PUBLIC "-//W3C//DTD SVG 1.1//EN" "http://www.w3.org/Graphics/SVG/1.1/DTD/svg11.dtd">
<svg version="1.1" id="Layer_1" xmlns="http://www.w3.org/2000/svg" xmlns:xlink="http://www.w3.org/1999/xlink" x="0px" y="0px"
	 width="300px" height="202.001px" viewBox="0 0 300 202.001" enable-background="new 0 0 300 202.001" xml:space="preserve">
<g>
	<path d="M51.376,202.001c-17.127-14.52-29.968-30.082-38.532-46.711S0,120.754,0,101.588c0-10.717,1.269-20.842,3.806-30.393
		S9.917,52.68,14.535,44.292c4.617-8.388,10.113-16.263,16.494-23.625C37.404,13.301,44.397,6.414,52.009,0l14.689,14.693
		C52.961,27.027,42.636,40.348,35.731,54.651c-6.905,14.306-10.362,29.353-10.362,45.138c0,15.996,3.457,31.384,10.362,46.149
		c6.905,14.754,17.23,28.23,30.967,40.43L51.376,202.001z"/>
	<path fill="#FFD700" d="M165.011,157.61h-29.699L92.708,50.212h28.752l22.301,60.897l6.663,19.653l6.56-18.821l22.512-61.729
		h27.703L165.011,157.61z"/>
	<path d="M248.73,0c17.273,14.376,30.141,29.898,38.59,46.565C295.77,63.227,300,81.18,300,100.422
		c0,10.711-1.266,20.824-3.797,30.341c-2.531,9.516-6.094,18.504-10.641,26.953s-9.973,16.371-16.324,23.73
		c-6.328,7.371-13.313,14.215-20.918,20.555l-14.801-14.684c13.805-12.328,24.164-25.688,31.078-40.055
		c6.902-14.391,10.359-29.462,10.359-45.252c0-15.932-3.457-31.295-10.359-46.09c-6.914-14.798-17.273-28.331-31.078-40.594
		L248.73,0z"/>
</g>
<g>
</g>
<g>
</g>
<g>
</g>
<g>
</g>
<g>
</g>
<g>
</g>
<g>
</g>
<g>
</g>
<g>
</g>
<g>
</g>
<g>
</g>
<g>
</g>
<g>
</g>
<g>
</g>
<g>
</g>
</svg>
