<?xml version="1.0" encoding="utf-8"?>
<!-- Generator: Adobe Illustrator 16.0.0, SVG Export Plug-In . SVG Version: 6.00 Build 0)  -->
<!DOCTYPE svg PUBLIC "-//W3C//DTD SVG 1.1//EN" "http://www.w3.org/Graphics/SVG/1.1/DTD/svg11.dtd">
<svg version="1.1" id="Layer_1" xmlns="http://www.w3.org/2000/svg" xmlns:xlink="http://www.w3.org/1999/xlink" x="0px" y="0px"
	 width="50px" height="50px" viewBox="0 0 50 50" enable-background="new 0 0 50 50" xml:space="preserve">
<g>
	<path d="M8.635,41.662c-2.854-2.42-4.995-5.014-6.422-7.785s-2.141-5.756-2.141-8.95c0-1.786,0.211-3.474,0.634-5.065
		s1.019-3.086,1.788-4.484s1.686-2.71,2.749-3.938c1.063-1.228,2.228-2.375,3.497-3.444l2.448,2.449
		c-2.29,2.056-4.01,4.276-5.161,6.66c-1.151,2.384-1.727,4.892-1.727,7.523c0,2.666,0.576,5.23,1.727,7.691
		c1.151,2.459,2.872,4.705,5.161,6.738L8.635,41.662z"/>
	<path fill="#FFD700" d="M27.574,34.264h-4.95l-7.101-17.899h4.792l3.717,10.149l1.11,3.275l1.093-3.137l3.752-10.288h4.617
		L27.574,34.264z"/>
	<path d="M41.527,7.996c2.879,2.396,5.023,4.983,6.432,7.761c1.408,2.777,2.113,5.769,2.113,8.976c0,1.785-0.211,3.471-0.633,5.057
		s-1.016,3.084-1.773,4.492s-1.662,2.729-2.721,3.955c-1.055,1.229-2.219,2.369-3.486,3.426l-2.467-2.447
		c2.301-2.055,4.027-4.281,5.18-6.676c1.15-2.398,1.727-4.91,1.727-7.542c0-2.655-0.576-5.216-1.727-7.682
		c-1.152-2.466-2.879-4.722-5.18-6.766L41.527,7.996z"/>
</g>
<g>
</g>
<g>
</g>
<g>
</g>
<g>
</g>
<g>
</g>
<g>
</g>
<g>
</g>
<g>
</g>
<g>
</g>
<g>
</g>
<g>
</g>
<g>
</g>
<g>
</g>
<g>
</g>
<g>
</g>
</svg>
